<?xml version="1.0" encoding="utf-8"?>
<svg width="512" height="512" viewBox="0 0 512 512" fill="none" xmlns="http://www.w3.org/2000/svg">
    <path d="M188.47 37.2824C189.862 36.9779 191.284 36.8234 192.709 36.8223H319.291C320.716 36.8234 322.138 36.9779 323.53 37.2824C336.286 40.0873 344.846 52.2447 342.041 64.9996L316.682 161.665C314.836 169.478 308.881 175.759 301.234 178.007C299.877 178.457 298.465 178.685 297.045 178.683H214.955C213.535 178.685 212.123 178.457 210.766 178.007C203.119 175.759 197.164 169.478 195.318 161.665L169.959 64.9996C167.154 52.2447 175.714 40.0873 188.47 37.2824Z" fill="#ffffff"/>
    <path fill-rule="evenodd" clip-rule="evenodd" d="M184 196.905C184.526 195.878 185.686 195.298 186.842 195.447L325.158 195.447C326.314 195.298 327.474 195.878 328 196.905L410.8 346.905C411.267 347.831 411.267 348.937 410.8 349.863L369.6 424.863C369.133 425.789 368.24 426.361 367.263 426.361H144.737C143.76 426.361 142.867 425.789 142.4 424.863L101.2 349.863C100.733 348.937 100.733 347.831 101.2 346.905L184 196.905ZM192.079 200.447L113.917 343.384L152.575 421.361H359.425L398.083 343.384L319.921 200.447H192.079Z" fill="#ffffff"/>
    <path d="M266.25 257.662H245.75C242.574 257.662 240 260.236 240 263.412V339.912C240 343.087 242.574 345.662 245.75 345.662H266.25C269.426 345.662 272 343.087 272 339.912V263.412C272 260.236 269.426 257.662 266.25 257.662Z" fill="#ffffff"/>
    <path d="M266.25 367.662H245.75C242.574 367.662 240 370.236 240 373.412V378.412C240 381.587 242.574 384.162 245.75 384.162H266.25C269.426 384.162 272 381.587 272 378.412V373.412C272 370.236 269.426 367.662 266.25 367.662Z" fill="#ffffff"/>
</svg>