<?xml version="1.0" encoding="UTF-8" standalone="no"?>
<svg width="456" height="456" viewBox="0 0 456 456" version="1.1" xmlns="http://www.w3.org/2000/svg">
    <path d="M105.78 241.129C105.78 185.517 151.367 140.339 207.202 140.339H249.541C305.376 140.339 350.963 185.517 350.963 241.129V241.129C350.963 296.741 305.376 341.919 249.541 341.919H207.202C151.367 341.919 105.78 296.741 105.78 241.129V241.129Z" fill="white"/>
    <path d="M194.759 262.789C180.342 262.789 168.646 274.485 168.646 288.902C168.646 303.319 180.342 315.015 194.759 315.015C209.176 315.015 220.872 303.319 220.872 288.902C220.872 274.485 209.176 262.789 194.759 262.789Z" fill="#512BD4"/>
    <path d="M261.984 262.789C247.567 262.789 235.871 274.485 235.871 288.902C235.871 303.319 247.567 315.015 261.984 315.015C276.401 315.015 288.097 303.319 288.097 288.902C288.097 274.485 276.401 262.789 261.984 262.789Z" fill="#512BD4"/>
    <path d="M194.759 167.243C180.342 167.243 168.646 178.939 168.646 193.356C168.646 207.773 180.342 219.469 194.759 219.469C209.176 219.469 220.872 207.773 220.872 193.356C220.872 178.939 209.176 167.243 194.759 167.243Z" fill="#512BD4"/>
    <path d="M261.984 167.243C247.567 167.243 235.871 178.939 235.871 193.356C235.871 207.773 247.567 219.469 261.984 219.469C276.401 219.469 288.097 207.773 288.097 193.356C288.097 178.939 276.401 167.243 261.984 167.243Z" fill="#512BD4"/>
</svg>